# Blender 4.3.2
# www.blender.org
mtllib cube_1.mtl
o Cube
v -1.000000 -1.000000 1.000000
v -1.000000 1.000000 1.000000
v -1.000000 -1.000000 -1.000000
v -1.000000 1.000000 -1.000000
v 1.000000 -1.000000 1.000000
v 1.000000 1.000000 1.000000
v 1.000000 -1.000000 -1.000000
v 1.000000 1.000000 -1.000000
v -1.000000 -1.000000 0.000000
v -1.000000 0.000000 1.000000
v -1.000000 1.000000 -0.000000
v -1.000000 -0.000000 -1.000000
v 0.000000 -1.000000 -1.000000
v 0.000000 1.000000 -1.000000
v 1.000000 -0.000000 -1.000000
v 1.000000 -1.000000 0.000000
v 1.000000 1.000000 -0.000000
v 1.000000 0.000000 1.000000
v 0.000000 -1.000000 1.000000
v 0.000000 1.000000 1.000000
v -1.000000 -0.000000 -0.000000
v 0.000000 -0.000000 -1.000000
v 1.000000 0.000000 0.000000
v -0.000000 0.000000 1.000000
v 0.000000 -1.000000 0.000000
v 0.000000 1.000000 -0.000000
vn -1.0000 -0.0000 -0.0000
vn -0.0000 -0.0000 -1.0000
vn 1.0000 -0.0000 -0.0000
vn -0.0000 -0.0000 1.0000
vn -0.0000 -1.0000 -0.0000
vn -0.0000 1.0000 -0.0000
vt 0.000000 1.000000
vt 0.500000 1.000000
vt 0.500000 0.500000
vt 0.000000 0.500000
vt 1.000000 1.000000
vt 1.000000 0.500000
vt 1.000000 0.000000
vt 0.500000 0.000000
vt 0.000000 0.000000
vt 0.500000 0.500000
vt 0.500000 0.500000
s 1
f 1/1/1 10/2/1 21/3/1 9/4/1
f 10/2/1 2/5/1 11/6/1 21/3/1
f 21/3/1 11/6/1 4/7/1 12/8/1
f 9/4/1 21/3/1 12/8/1 3/9/1
f 3/9/2 12/4/2 22/10/2 13/8/2
f 12/4/2 4/1/2 14/2/2 22/10/2
f 22/10/2 14/2/2 8/5/2 15/6/2
f 13/8/2 22/10/2 15/6/2 7/7/2
f 7/9/3 15/8/3 23/3/3 16/4/3
f 15/8/3 8/7/3 17/6/3 23/3/3
f 23/3/3 17/6/3 6/5/3 18/2/3
f 16/4/3 23/3/3 18/2/3 5/1/3
f 5/7/4 18/6/4 24/10/4 19/8/4
f 18/6/4 6/5/4 20/2/4 24/10/4
f 24/10/4 20/2/4 2/1/4 10/4/4
f 19/8/4 24/10/4 10/4/4 1/9/4
f 3/9/5 13/8/5 25/3/5 9/4/5
f 13/8/5 7/7/5 16/6/5 25/3/5
f 25/3/5 16/6/5 5/5/5 19/2/5
f 9/4/5 25/3/5 19/2/5 1/1/5
f 8/7/6 14/8/6 26/11/6 17/6/6
f 14/8/6 4/9/6 11/4/6 26/11/6
f 26/11/6 11/4/6 2/1/6 20/2/6
f 17/6/6 26/11/6 20/2/6 6/5/6
