# Blender 4.3.2
# www.blender.org
mtllib smooth_ico.mtl
o Icosphere
v 0.000000 -1.000000 0.000000
v 0.723600 -0.447215 0.525720
v -0.276385 -0.447215 0.850640
v -0.894425 -0.447215 0.000000
v -0.276385 -0.447215 -0.850640
v 0.723600 -0.447215 -0.525720
v 0.276385 0.447215 0.850640
v -0.723600 0.447215 0.525720
v -0.723600 0.447215 -0.525720
v 0.276385 0.447215 -0.850640
v 0.894425 0.447215 -0.000000
v 0.000000 1.000000 -0.000000
vn -0.0000 -1.0000 -0.0000
vn 0.7236 -0.4472 0.5257
vn -0.2764 -0.4472 0.8507
vn 0.7236 -0.4472 -0.5257
vn -0.8944 -0.4472 -0.0000
vn -0.2764 -0.4472 -0.8507
vn 0.8944 0.4472 -0.0000
vn 0.2764 0.4472 0.8507
vn -0.7236 0.4472 0.5257
vn -0.7236 0.4472 -0.5257
vn 0.2764 0.4472 -0.8507
vn -0.0000 1.0000 -0.0000
vt 0.207274 0.268895
vt 0.290910 0.413759
vt 0.123637 0.413759
vt 0.374546 0.268895
vt 0.458182 0.413759
vt 0.876364 0.268895
vt 0.960000 0.413759
vt 0.792727 0.413759
vt 0.709091 0.268895
vt 0.625455 0.413759
vt 0.541819 0.268895
vt 0.374546 0.558623
vt 0.207274 0.558623
vt 0.876364 0.558623
vt 0.709091 0.558623
vt 0.541819 0.558623
vt 0.040000 0.558623
vt 0.290910 0.703487
vt 0.123637 0.703487
vt 0.792727 0.703487
vt 0.625455 0.703487
vt 0.458182 0.703487
s 1
f 1/1/1 2/2/2 3/3/3
f 2/2/2 1/4/1 6/5/4
f 1/6/1 3/7/3 4/8/5
f 1/9/1 4/8/5 5/10/6
f 1/11/1 5/10/6 6/5/4
f 2/2/2 6/5/4 11/12/7
f 3/3/3 2/2/2 7/13/8
f 4/8/5 3/7/3 8/14/9
f 5/10/6 4/8/5 9/15/10
f 6/5/4 5/10/6 10/16/11
f 2/2/2 11/12/7 7/13/8
f 3/3/3 7/13/8 8/17/9
f 4/8/5 8/14/9 9/15/10
f 5/10/6 9/15/10 10/16/11
f 6/5/4 10/16/11 11/12/7
f 7/13/8 11/12/7 12/18/12
f 8/17/9 7/13/8 12/19/12
f 9/15/10 8/14/9 12/20/12
f 10/16/11 9/15/10 12/21/12
f 11/12/7 10/16/11 12/22/12
