# Blender 4.2.3 LTS
# www.blender.org
mtllib test_torus.mtl
o Torus
v 1.860000 0.000000 0.000000
v 1.619033 0.500372 0.000000
v 1.077587 0.623954 0.000000
v 0.643380 0.277686 0.000000
v 0.643380 -0.277686 0.000000
v 1.077587 -0.623954 0.000000
v 1.619033 -0.500372 0.000000
v 1.159691 0.000000 -1.454207
v 1.009451 0.500372 -1.265811
v 0.671864 0.623954 -0.842491
v 0.401141 0.277686 -0.503015
v 0.401141 -0.277686 -0.503015
v 0.671864 -0.623954 -0.842491
v 1.009451 -0.500372 -1.265811
v -0.413889 0.000000 -1.813366
v -0.360269 0.500372 -1.578441
v -0.239786 0.623954 -1.050569
v -0.143166 0.277686 -0.627249
v -0.143166 -0.277686 -0.627249
v -0.239786 -0.623954 -1.050569
v -0.360269 -0.500372 -1.578441
v -1.675802 0.000000 -0.807024
v -1.458699 0.500372 -0.702472
v -0.970872 0.623954 -0.467547
v -0.579665 0.277686 -0.279152
v -0.579665 -0.277686 -0.279152
v -0.970872 -0.623954 -0.467547
v -1.458699 -0.500372 -0.702472
v -1.675802 0.000000 0.807023
v -1.458699 0.500372 0.702472
v -0.970872 0.623954 0.467547
v -0.579665 0.277686 0.279152
v -0.579665 -0.277686 0.279152
v -0.970872 -0.623954 0.467547
v -1.458699 -0.500372 0.702472
v -0.413889 0.000000 1.813366
v -0.360269 0.500372 1.578441
v -0.239786 0.623954 1.050569
v -0.143166 0.277686 0.627249
v -0.143166 -0.277686 0.627249
v -0.239786 -0.623954 1.050569
v -0.360269 -0.500372 1.578441
v 1.159690 0.000000 1.454207
v 1.009450 0.500372 1.265812
v 0.671864 0.623954 0.842492
v 0.401141 0.277686 0.503015
v 0.401141 -0.277686 0.503015
v 0.671864 -0.623954 0.842492
v 1.009450 -0.500372 1.265812
vn 0.8265 0.3980 -0.3980
vn 0.2213 0.9694 -0.1066
vn -0.5972 0.7488 0.2876
vn -0.9010 -0.0000 0.4339
vn -0.5972 -0.7488 0.2876
vn 0.2213 -0.9694 -0.1066
vn 0.8265 -0.3980 -0.3980
vn 0.2041 0.3980 -0.8944
vn 0.0546 0.9694 -0.2394
vn -0.1475 0.7488 0.6462
vn -0.2225 -0.0000 0.9749
vn -0.1475 -0.7488 0.6462
vn 0.0546 -0.9694 -0.2394
vn 0.2041 -0.3980 -0.8944
vn -0.5720 0.3980 -0.7172
vn -0.1531 0.9694 -0.1920
vn 0.4132 0.7488 0.5182
vn 0.6235 -0.0000 0.7818
vn 0.4132 -0.7488 0.5182
vn -0.1531 -0.9694 -0.1920
vn -0.5720 -0.3980 -0.7172
vn -0.9174 0.3980 -0.0000
vn -0.2456 0.9694 -0.0000
vn 0.6628 0.7488 -0.0000
vn 1.0000 -0.0000 -0.0000
vn 0.6628 -0.7488 -0.0000
vn -0.2456 -0.9694 -0.0000
vn -0.9174 -0.3980 -0.0000
vn -0.5720 0.3980 0.7172
vn -0.1531 0.9694 0.1920
vn 0.4132 0.7488 -0.5182
vn 0.6235 -0.0000 -0.7818
vn 0.4132 -0.7488 -0.5182
vn -0.1531 -0.9694 0.1920
vn -0.5720 -0.3980 0.7172
vn 0.2041 0.3980 0.8944
vn 0.0546 0.9694 0.2394
vn -0.1475 0.7488 -0.6462
vn -0.2225 -0.0000 -0.9749
vn -0.1475 -0.7488 -0.6462
vn 0.0546 -0.9694 0.2394
vn 0.2041 -0.3980 0.8944
vn 0.8265 0.3980 0.3980
vn 0.2213 0.9694 0.1066
vn -0.5972 0.7488 -0.2876
vn -0.9010 -0.0000 -0.4339
vn -0.5972 -0.7488 -0.2876
vn 0.2213 -0.9694 0.1066
vn 0.8265 -0.3980 0.3980
vt 0.571429 0.571429
vt 0.714286 0.571429
vt 0.714286 0.714286
vt 0.571429 0.714286
vt 0.714286 0.857143
vt 0.571429 0.857143
vt 0.714286 1.000000
vt 0.571429 1.000000
vt 0.571429 -0.000000
vt 0.714286 -0.000000
vt 0.714286 0.142857
vt 0.571429 0.142857
vt 0.714286 0.285714
vt 0.571429 0.285714
vt 0.714286 0.428571
vt 0.571429 0.428571
vt 0.857143 0.571429
vt 0.857143 0.714286
vt 0.857143 0.857143
vt 0.857143 1.000000
vt 0.857143 -0.000000
vt 0.857143 0.142857
vt 0.857143 0.285714
vt 0.857143 0.428571
vt 1.000000 0.571429
vt 1.000000 0.714286
vt 1.000000 0.857143
vt 1.000000 1.000000
vt 1.000000 -0.000000
vt 1.000000 0.142857
vt 1.000000 0.285714
vt 1.000000 0.428571
vt -0.000000 0.571429
vt 0.142857 0.571429
vt 0.142857 0.714286
vt -0.000000 0.714286
vt 0.142857 0.857143
vt -0.000000 0.857143
vt 0.142857 1.000000
vt -0.000000 1.000000
vt -0.000000 -0.000000
vt 0.142857 -0.000000
vt 0.142857 0.142857
vt -0.000000 0.142857
vt 0.142857 0.285714
vt -0.000000 0.285714
vt 0.142857 0.428571
vt -0.000000 0.428571
vt 0.285714 0.571429
vt 0.285714 0.714286
vt 0.285714 0.857143
vt 0.285714 1.000000
vt 0.285714 -0.000000
vt 0.285714 0.142857
vt 0.285714 0.285714
vt 0.285714 0.428571
vt 0.428571 0.571429
vt 0.428571 0.714286
vt 0.428571 0.857143
vt 0.428571 1.000000
vt 0.428571 -0.000000
vt 0.428571 0.142857
vt 0.428571 0.285714
vt 0.428571 0.428571
s 0
f 1/1/1 8/2/1 9/3/1 2/4/1
f 2/4/2 9/3/2 10/5/2 3/6/2
f 3/6/3 10/5/3 11/7/3 4/8/3
f 4/9/4 11/10/4 12/11/4 5/12/4
f 5/12/5 12/11/5 13/13/5 6/14/5
f 6/14/6 13/13/6 14/15/6 7/16/6
f 7/16/7 14/15/7 8/2/7 1/1/7
f 8/2/8 15/17/8 16/18/8 9/3/8
f 9/3/9 16/18/9 17/19/9 10/5/9
f 10/5/10 17/19/10 18/20/10 11/7/10
f 11/10/11 18/21/11 19/22/11 12/11/11
f 12/11/12 19/22/12 20/23/12 13/13/12
f 13/13/13 20/23/13 21/24/13 14/15/13
f 14/15/14 21/24/14 15/17/14 8/2/14
f 15/17/15 22/25/15 23/26/15 16/18/15
f 16/18/16 23/26/16 24/27/16 17/19/16
f 17/19/17 24/27/17 25/28/17 18/20/17
f 18/21/18 25/29/18 26/30/18 19/22/18
f 19/22/19 26/30/19 27/31/19 20/23/19
f 20/23/20 27/31/20 28/32/20 21/24/20
f 21/24/21 28/32/21 22/25/21 15/17/21
f 22/33/22 29/34/22 30/35/22 23/36/22
f 23/36/23 30/35/23 31/37/23 24/38/23
f 24/38/24 31/37/24 32/39/24 25/40/24
f 25/41/25 32/42/25 33/43/25 26/44/25
f 26/44/26 33/43/26 34/45/26 27/46/26
f 27/46/27 34/45/27 35/47/27 28/48/27
f 28/48/28 35/47/28 29/34/28 22/33/28
f 29/34/29 36/49/29 37/50/29 30/35/29
f 30/35/30 37/50/30 38/51/30 31/37/30
f 31/37/31 38/51/31 39/52/31 32/39/31
f 32/42/32 39/53/32 40/54/32 33/43/32
f 33/43/33 40/54/33 41/55/33 34/45/33
f 34/45/34 41/55/34 42/56/34 35/47/34
f 35/47/35 42/56/35 36/49/35 29/34/35
f 36/49/36 43/57/36 44/58/36 37/50/36
f 37/50/37 44/58/37 45/59/37 38/51/37
f 38/51/38 45/59/38 46/60/38 39/52/38
f 39/53/39 46/61/39 47/62/39 40/54/39
f 40/54/40 47/62/40 48/63/40 41/55/40
f 41/55/41 48/63/41 49/64/41 42/56/41
f 42/56/42 49/64/42 43/57/42 36/49/42
f 43/57/43 1/1/43 2/4/43 44/58/43
f 44/58/44 2/4/44 3/6/44 45/59/44
f 45/59/45 3/6/45 4/8/45 46/60/45
f 46/61/46 4/9/46 5/12/46 47/62/46
f 47/62/47 5/12/47 6/14/47 48/63/47
f 48/63/48 6/14/48 7/16/48 49/64/48
f 49/64/49 7/16/49 1/1/49 43/57/49
